<svg xmlns="http://www.w3.org/2000/svg" width="920" height="450" viewBox="0 0 920 450">
<rect width="920" height="450" rx="24" fill="#0d1117"/>
<text x="460" y="38" text-anchor="middle" fill="#f0f6fc" font-family="system-ui,sans-serif" font-size="24" font-weight="700">Adjust — hold left Space, then right Space</text>
<path d="M38 70 H370 Q405 70 420 105 V404 H38 Z" fill="#161b22" stroke="#30363d" stroke-width="2"/>
<path d="M500 105 Q515 70 550 70 H882 V404 H500 Z" fill="#161b22" stroke="#30363d" stroke-width="2"/>
<rect x="60.0" y="138.5" width="58" height="58" rx="9" fill="#202938" stroke="#8b949e" stroke-width="1"/>
<text x="89.0" y="165.5" text-anchor="middle" fill="white" font-family="system-ui,sans-serif" font-size="13" font-weight="600">F1</text>
<rect x="122.0" y="107.5" width="58" height="58" rx="9" fill="#2f6feb" stroke="#8b949e" stroke-width="1"/>
<text x="151.0" y="126.5" text-anchor="middle" fill="white" font-family="system-ui,sans-serif" font-size="11" font-weight="600">Studio</text>
<text x="151.0" y="143.5" text-anchor="middle" fill="white" font-family="system-ui,sans-serif" font-size="11" font-weight="600">unlock</text>
<rect x="184.0" y="92.0" width="58" height="58" rx="9" fill="#202938" stroke="#8b949e" stroke-width="1"/>
<text x="213.0" y="119.0" text-anchor="middle" fill="white" font-family="system-ui,sans-serif" font-size="13" font-weight="600">F3</text>
<rect x="246.0" y="107.5" width="58" height="58" rx="9" fill="#202938" stroke="#8b949e" stroke-width="1"/>
<text x="275.0" y="134.5" text-anchor="middle" fill="white" font-family="system-ui,sans-serif" font-size="13" font-weight="600">F4</text>
<rect x="308.0" y="138.5" width="58" height="58" rx="9" fill="#b94fd8" stroke="#8b949e" stroke-width="1"/>
<text x="337.0" y="157.5" text-anchor="middle" fill="white" font-family="system-ui,sans-serif" font-size="13" font-weight="600">RGB</text>
<text x="337.0" y="174.5" text-anchor="middle" fill="white" font-family="system-ui,sans-serif" font-size="13" font-weight="600">toggle</text>
<rect x="556.0" y="138.5" width="58" height="58" rx="9" fill="#202938" stroke="#8b949e" stroke-width="1"/>
<text x="585.0" y="165.5" text-anchor="middle" fill="white" font-family="system-ui,sans-serif" font-size="13" font-weight="600">1</text>
<rect x="618.0" y="107.5" width="58" height="58" rx="9" fill="#202938" stroke="#8b949e" stroke-width="1"/>
<text x="647.0" y="134.5" text-anchor="middle" fill="white" font-family="system-ui,sans-serif" font-size="13" font-weight="600">2</text>
<rect x="680.0" y="92.0" width="58" height="58" rx="9" fill="#202938" stroke="#8b949e" stroke-width="1"/>
<text x="709.0" y="119.0" text-anchor="middle" fill="white" font-family="system-ui,sans-serif" font-size="13" font-weight="600">3</text>
<rect x="742.0" y="107.5" width="58" height="58" rx="9" fill="#202938" stroke="#8b949e" stroke-width="1"/>
<text x="771.0" y="134.5" text-anchor="middle" fill="white" font-family="system-ui,sans-serif" font-size="13" font-weight="600">4</text>
<rect x="804.0" y="138.5" width="58" height="58" rx="9" fill="#202938" stroke="#8b949e" stroke-width="1"/>
<text x="833.0" y="165.5" text-anchor="middle" fill="white" font-family="system-ui,sans-serif" font-size="13" font-weight="600">5</text>
<rect x="60.0" y="200.5" width="58" height="58" rx="9" fill="#202938" stroke="#8b949e" stroke-width="1"/>
<text x="89.0" y="227.5" text-anchor="middle" fill="white" font-family="system-ui,sans-serif" font-size="13" font-weight="600">F6</text>
<rect x="122.0" y="169.5" width="58" height="58" rx="9" fill="#202938" stroke="#8b949e" stroke-width="1"/>
<text x="151.0" y="196.5" text-anchor="middle" fill="white" font-family="system-ui,sans-serif" font-size="13" font-weight="600">F7</text>
<rect x="184.0" y="154.0" width="58" height="58" rx="9" fill="#202938" stroke="#8b949e" stroke-width="1"/>
<text x="213.0" y="181.0" text-anchor="middle" fill="white" font-family="system-ui,sans-serif" font-size="13" font-weight="600">F8</text>
<rect x="246.0" y="169.5" width="58" height="58" rx="9" fill="#202938" stroke="#8b949e" stroke-width="1"/>
<text x="275.0" y="196.5" text-anchor="middle" fill="white" font-family="system-ui,sans-serif" font-size="13" font-weight="600">F9</text>
<rect x="308.0" y="200.5" width="58" height="58" rx="9" fill="#202938" stroke="#8b949e" stroke-width="1"/>
<text x="337.0" y="227.5" text-anchor="middle" fill="white" font-family="system-ui,sans-serif" font-size="13" font-weight="600">F10</text>
<rect x="556.0" y="200.5" width="58" height="58" rx="9" fill="#25845b" stroke="#8b949e" stroke-width="1"/>
<text x="585.0" y="227.5" text-anchor="middle" fill="white" font-family="system-ui,sans-serif" font-size="13" font-weight="600">Mute</text>
<rect x="618.0" y="169.5" width="58" height="58" rx="9" fill="#25845b" stroke="#8b949e" stroke-width="1"/>
<text x="647.0" y="196.5" text-anchor="middle" fill="white" font-family="system-ui,sans-serif" font-size="13" font-weight="600">Vol −</text>
<rect x="680.0" y="154.0" width="58" height="58" rx="9" fill="#25845b" stroke="#8b949e" stroke-width="1"/>
<text x="709.0" y="181.0" text-anchor="middle" fill="white" font-family="system-ui,sans-serif" font-size="13" font-weight="600">Vol +</text>
<rect x="742.0" y="169.5" width="58" height="58" rx="9" fill="#25845b" stroke="#8b949e" stroke-width="1"/>
<text x="771.0" y="196.5" text-anchor="middle" fill="white" font-family="system-ui,sans-serif" font-size="13" font-weight="600">Play/Pause</text>
<rect x="804.0" y="200.5" width="58" height="58" rx="9" fill="#3b4252" stroke="#8b949e" stroke-width="1"/>
<text x="833.0" y="227.5" text-anchor="middle" fill="white" font-family="system-ui,sans-serif" font-size="13" font-weight="600">—</text>
<rect x="60.0" y="262.5" width="58" height="58" rx="9" fill="#2f6feb" stroke="#8b949e" stroke-width="1"/>
<text x="89.0" y="289.5" text-anchor="middle" fill="white" font-family="system-ui,sans-serif" font-size="13" font-weight="600">BT 1</text>
<rect x="122.0" y="231.5" width="58" height="58" rx="9" fill="#2f6feb" stroke="#8b949e" stroke-width="1"/>
<text x="151.0" y="258.5" text-anchor="middle" fill="white" font-family="system-ui,sans-serif" font-size="13" font-weight="600">BT 2</text>
<rect x="184.0" y="216.0" width="58" height="58" rx="9" fill="#2f6feb" stroke="#8b949e" stroke-width="1"/>
<text x="213.0" y="243.0" text-anchor="middle" fill="white" font-family="system-ui,sans-serif" font-size="13" font-weight="600">BT 3</text>
<rect x="246.0" y="231.5" width="58" height="58" rx="9" fill="#2f6feb" stroke="#8b949e" stroke-width="1"/>
<text x="275.0" y="258.5" text-anchor="middle" fill="white" font-family="system-ui,sans-serif" font-size="13" font-weight="600">Clear BT</text>
<rect x="308.0" y="262.5" width="58" height="58" rx="9" fill="#3b4252" stroke="#8b949e" stroke-width="1"/>
<text x="337.0" y="289.5" text-anchor="middle" fill="white" font-family="system-ui,sans-serif" font-size="13" font-weight="600">—</text>
<rect x="556.0" y="262.5" width="58" height="58" rx="9" fill="#3b4252" stroke="#8b949e" stroke-width="1"/>
<text x="585.0" y="289.5" text-anchor="middle" fill="white" font-family="system-ui,sans-serif" font-size="13" font-weight="600">—</text>
<rect x="618.0" y="231.5" width="58" height="58" rx="9" fill="#25845b" stroke="#8b949e" stroke-width="1"/>
<text x="647.0" y="258.5" text-anchor="middle" fill="white" font-family="system-ui,sans-serif" font-size="13" font-weight="600">Previous</text>
<rect x="680.0" y="216.0" width="58" height="58" rx="9" fill="#25845b" stroke="#8b949e" stroke-width="1"/>
<text x="709.0" y="243.0" text-anchor="middle" fill="white" font-family="system-ui,sans-serif" font-size="13" font-weight="600">Next</text>
<rect x="742.0" y="231.5" width="58" height="58" rx="9" fill="#25845b" stroke="#8b949e" stroke-width="1"/>
<text x="771.0" y="258.5" text-anchor="middle" fill="white" font-family="system-ui,sans-serif" font-size="13" font-weight="600">Stop</text>
<rect x="804.0" y="262.5" width="58" height="58" rx="9" fill="#3b4252" stroke="#8b949e" stroke-width="1"/>
<text x="833.0" y="289.5" text-anchor="middle" fill="white" font-family="system-ui,sans-serif" font-size="13" font-weight="600">—</text>
<rect x="153.0" y="340.0" width="58" height="58" rx="9" fill="#3b4252" stroke="#8b949e" stroke-width="1"/>
<text x="182.0" y="367.0" text-anchor="middle" fill="white" font-family="system-ui,sans-serif" font-size="13" font-weight="600">▽</text>
<rect x="215.0" y="340.0" width="58" height="58" rx="9" fill="#3b4252" stroke="#8b949e" stroke-width="1"/>
<text x="244.0" y="367.0" text-anchor="middle" fill="white" font-family="system-ui,sans-serif" font-size="13" font-weight="600">▽</text>
<rect x="277.0" y="340.0" width="58" height="58" rx="9" fill="#3b4252" stroke="#8b949e" stroke-width="1"/>
<text x="306.0" y="367.0" text-anchor="middle" fill="white" font-family="system-ui,sans-serif" font-size="13" font-weight="600">▽</text>
<rect x="354.5" y="309.0" width="58" height="58" rx="9" fill="#3b4252" stroke="#8b949e" stroke-width="1"/>
<text x="383.5" y="336.0" text-anchor="middle" fill="white" font-family="system-ui,sans-serif" font-size="13" font-weight="600">▽</text>
<rect x="509.5" y="309.0" width="58" height="58" rx="9" fill="#3b4252" stroke="#8b949e" stroke-width="1"/>
<text x="538.5" y="336.0" text-anchor="middle" fill="white" font-family="system-ui,sans-serif" font-size="13" font-weight="600">▽</text>
<rect x="587.0" y="340.0" width="58" height="58" rx="9" fill="#3b4252" stroke="#8b949e" stroke-width="1"/>
<text x="616.0" y="367.0" text-anchor="middle" fill="white" font-family="system-ui,sans-serif" font-size="13" font-weight="600">▽</text>
<rect x="649.0" y="340.0" width="58" height="58" rx="9" fill="#2f6feb" stroke="#8b949e" stroke-width="1"/>
<text x="678.0" y="367.0" text-anchor="middle" fill="white" font-family="system-ui,sans-serif" font-size="13" font-weight="600">USB output</text>
<rect x="711.0" y="340.0" width="58" height="58" rx="9" fill="#3b4252" stroke="#8b949e" stroke-width="1"/>
<text x="740.0" y="367.0" text-anchor="middle" fill="white" font-family="system-ui,sans-serif" font-size="13" font-weight="600">▽</text>
<circle cx="105" cy="55" r="20" fill="#21262d" stroke="#8b949e"/><circle cx="815" cy="55" r="20" fill="#21262d" stroke="#8b949e"/>
<text x="460" y="436" text-anchor="middle" fill="#b1bac4" font-family="system-ui,sans-serif" font-size="14">Left encoder: ← / →   •   Right encoder: Volume − / +</text>
</svg>
