<svg xmlns="http://www.w3.org/2000/svg" width="920" height="450" viewBox="0 0 920 450">
<rect width="920" height="450" rx="24" fill="#0d1117"/>
<text x="460" y="38" text-anchor="middle" fill="#f0f6fc" font-family="system-ui,sans-serif" font-size="24" font-weight="700">Base</text>
<path d="M38 70 H370 Q405 70 420 105 V404 H38 Z" fill="#161b22" stroke="#30363d" stroke-width="2"/>
<path d="M500 105 Q515 70 550 70 H882 V404 H500 Z" fill="#161b22" stroke="#30363d" stroke-width="2"/>
<rect x="60.0" y="138.5" width="58" height="58" rx="9" fill="#202938" stroke="#8b949e" stroke-width="1"/>
<text x="89.0" y="165.5" text-anchor="middle" fill="white" font-family="system-ui,sans-serif" font-size="13" font-weight="600">Q</text>
<rect x="122.0" y="107.5" width="58" height="58" rx="9" fill="#202938" stroke="#8b949e" stroke-width="1"/>
<text x="151.0" y="134.5" text-anchor="middle" fill="white" font-family="system-ui,sans-serif" font-size="13" font-weight="600">W</text>
<rect x="184.0" y="92.0" width="58" height="58" rx="9" fill="#202938" stroke="#8b949e" stroke-width="1"/>
<text x="213.0" y="119.0" text-anchor="middle" fill="white" font-family="system-ui,sans-serif" font-size="13" font-weight="600">E</text>
<rect x="246.0" y="107.5" width="58" height="58" rx="9" fill="#202938" stroke="#8b949e" stroke-width="1"/>
<text x="275.0" y="134.5" text-anchor="middle" fill="white" font-family="system-ui,sans-serif" font-size="13" font-weight="600">R</text>
<rect x="308.0" y="138.5" width="58" height="58" rx="9" fill="#202938" stroke="#8b949e" stroke-width="1"/>
<text x="337.0" y="165.5" text-anchor="middle" fill="white" font-family="system-ui,sans-serif" font-size="13" font-weight="600">T</text>
<rect x="556.0" y="138.5" width="58" height="58" rx="9" fill="#202938" stroke="#8b949e" stroke-width="1"/>
<text x="585.0" y="165.5" text-anchor="middle" fill="white" font-family="system-ui,sans-serif" font-size="13" font-weight="600">Y</text>
<rect x="618.0" y="107.5" width="58" height="58" rx="9" fill="#202938" stroke="#8b949e" stroke-width="1"/>
<text x="647.0" y="134.5" text-anchor="middle" fill="white" font-family="system-ui,sans-serif" font-size="13" font-weight="600">U</text>
<rect x="680.0" y="92.0" width="58" height="58" rx="9" fill="#202938" stroke="#8b949e" stroke-width="1"/>
<text x="709.0" y="119.0" text-anchor="middle" fill="white" font-family="system-ui,sans-serif" font-size="13" font-weight="600">I</text>
<rect x="742.0" y="107.5" width="58" height="58" rx="9" fill="#202938" stroke="#8b949e" stroke-width="1"/>
<text x="771.0" y="134.5" text-anchor="middle" fill="white" font-family="system-ui,sans-serif" font-size="13" font-weight="600">O</text>
<rect x="804.0" y="138.5" width="58" height="58" rx="9" fill="#202938" stroke="#8b949e" stroke-width="1"/>
<text x="833.0" y="165.5" text-anchor="middle" fill="white" font-family="system-ui,sans-serif" font-size="13" font-weight="600">P</text>
<rect x="60.0" y="200.5" width="58" height="58" rx="9" fill="#202938" stroke="#8b949e" stroke-width="1"/>
<text x="89.0" y="227.5" text-anchor="middle" fill="white" font-family="system-ui,sans-serif" font-size="13" font-weight="600">A</text>
<rect x="122.0" y="169.5" width="58" height="58" rx="9" fill="#202938" stroke="#8b949e" stroke-width="1"/>
<text x="151.0" y="196.5" text-anchor="middle" fill="white" font-family="system-ui,sans-serif" font-size="13" font-weight="600">S</text>
<rect x="184.0" y="154.0" width="58" height="58" rx="9" fill="#202938" stroke="#8b949e" stroke-width="1"/>
<text x="213.0" y="181.0" text-anchor="middle" fill="white" font-family="system-ui,sans-serif" font-size="13" font-weight="600">D</text>
<rect x="246.0" y="169.5" width="58" height="58" rx="9" fill="#202938" stroke="#8b949e" stroke-width="1"/>
<text x="275.0" y="196.5" text-anchor="middle" fill="white" font-family="system-ui,sans-serif" font-size="13" font-weight="600">F</text>
<rect x="308.0" y="200.5" width="58" height="58" rx="9" fill="#202938" stroke="#8b949e" stroke-width="1"/>
<text x="337.0" y="227.5" text-anchor="middle" fill="white" font-family="system-ui,sans-serif" font-size="13" font-weight="600">G</text>
<rect x="556.0" y="200.5" width="58" height="58" rx="9" fill="#202938" stroke="#8b949e" stroke-width="1"/>
<text x="585.0" y="227.5" text-anchor="middle" fill="white" font-family="system-ui,sans-serif" font-size="13" font-weight="600">H</text>
<rect x="618.0" y="169.5" width="58" height="58" rx="9" fill="#202938" stroke="#8b949e" stroke-width="1"/>
<text x="647.0" y="196.5" text-anchor="middle" fill="white" font-family="system-ui,sans-serif" font-size="13" font-weight="600">J</text>
<rect x="680.0" y="154.0" width="58" height="58" rx="9" fill="#202938" stroke="#8b949e" stroke-width="1"/>
<text x="709.0" y="181.0" text-anchor="middle" fill="white" font-family="system-ui,sans-serif" font-size="13" font-weight="600">K</text>
<rect x="742.0" y="169.5" width="58" height="58" rx="9" fill="#202938" stroke="#8b949e" stroke-width="1"/>
<text x="771.0" y="196.5" text-anchor="middle" fill="white" font-family="system-ui,sans-serif" font-size="13" font-weight="600">L</text>
<rect x="804.0" y="200.5" width="58" height="58" rx="9" fill="#202938" stroke="#8b949e" stroke-width="1"/>
<text x="833.0" y="227.5" text-anchor="middle" fill="white" font-family="system-ui,sans-serif" font-size="13" font-weight="600">;</text>
<rect x="60.0" y="262.5" width="58" height="58" rx="9" fill="#7657c8" stroke="#8b949e" stroke-width="1"/>
<text x="89.0" y="281.5" text-anchor="middle" fill="white" font-family="system-ui,sans-serif" font-size="13" font-weight="600">Z</text>
<text x="89.0" y="298.5" text-anchor="middle" fill="white" font-family="system-ui,sans-serif" font-size="13" font-weight="600">Shift</text>
<rect x="122.0" y="231.5" width="58" height="58" rx="9" fill="#7657c8" stroke="#8b949e" stroke-width="1"/>
<text x="151.0" y="250.5" text-anchor="middle" fill="white" font-family="system-ui,sans-serif" font-size="13" font-weight="600">X</text>
<text x="151.0" y="267.5" text-anchor="middle" fill="white" font-family="system-ui,sans-serif" font-size="13" font-weight="600">Alt</text>
<rect x="184.0" y="216.0" width="58" height="58" rx="9" fill="#7657c8" stroke="#8b949e" stroke-width="1"/>
<text x="213.0" y="235.0" text-anchor="middle" fill="white" font-family="system-ui,sans-serif" font-size="13" font-weight="600">C</text>
<text x="213.0" y="252.0" text-anchor="middle" fill="white" font-family="system-ui,sans-serif" font-size="13" font-weight="600">Ctrl</text>
<rect x="246.0" y="231.5" width="58" height="58" rx="9" fill="#7657c8" stroke="#8b949e" stroke-width="1"/>
<text x="275.0" y="250.5" text-anchor="middle" fill="white" font-family="system-ui,sans-serif" font-size="13" font-weight="600">V</text>
<text x="275.0" y="267.5" text-anchor="middle" fill="white" font-family="system-ui,sans-serif" font-size="13" font-weight="600">GUI</text>
<rect x="308.0" y="262.5" width="58" height="58" rx="9" fill="#202938" stroke="#8b949e" stroke-width="1"/>
<text x="337.0" y="289.5" text-anchor="middle" fill="white" font-family="system-ui,sans-serif" font-size="13" font-weight="600">B</text>
<rect x="556.0" y="262.5" width="58" height="58" rx="9" fill="#202938" stroke="#8b949e" stroke-width="1"/>
<text x="585.0" y="289.5" text-anchor="middle" fill="white" font-family="system-ui,sans-serif" font-size="13" font-weight="600">N</text>
<rect x="618.0" y="231.5" width="58" height="58" rx="9" fill="#7657c8" stroke="#8b949e" stroke-width="1"/>
<text x="647.0" y="250.5" text-anchor="middle" fill="white" font-family="system-ui,sans-serif" font-size="13" font-weight="600">M</text>
<text x="647.0" y="267.5" text-anchor="middle" fill="white" font-family="system-ui,sans-serif" font-size="13" font-weight="600">GUI</text>
<rect x="680.0" y="216.0" width="58" height="58" rx="9" fill="#7657c8" stroke="#8b949e" stroke-width="1"/>
<text x="709.0" y="235.0" text-anchor="middle" fill="white" font-family="system-ui,sans-serif" font-size="13" font-weight="600">,</text>
<text x="709.0" y="252.0" text-anchor="middle" fill="white" font-family="system-ui,sans-serif" font-size="13" font-weight="600">Ctrl</text>
<rect x="742.0" y="231.5" width="58" height="58" rx="9" fill="#7657c8" stroke="#8b949e" stroke-width="1"/>
<text x="771.0" y="250.5" text-anchor="middle" fill="white" font-family="system-ui,sans-serif" font-size="13" font-weight="600">.</text>
<text x="771.0" y="267.5" text-anchor="middle" fill="white" font-family="system-ui,sans-serif" font-size="13" font-weight="600">Alt</text>
<rect x="804.0" y="262.5" width="58" height="58" rx="9" fill="#7657c8" stroke="#8b949e" stroke-width="1"/>
<text x="833.0" y="281.5" text-anchor="middle" fill="white" font-family="system-ui,sans-serif" font-size="13" font-weight="600">/</text>
<text x="833.0" y="298.5" text-anchor="middle" fill="white" font-family="system-ui,sans-serif" font-size="13" font-weight="600">Shift</text>
<rect x="153.0" y="340.0" width="58" height="58" rx="9" fill="#7657c8" stroke="#8b949e" stroke-width="1"/>
<text x="182.0" y="367.0" text-anchor="middle" fill="white" font-family="system-ui,sans-serif" font-size="13" font-weight="600">Alt</text>
<rect x="215.0" y="340.0" width="58" height="58" rx="9" fill="#7657c8" stroke="#8b949e" stroke-width="1"/>
<text x="244.0" y="359.0" text-anchor="middle" fill="white" font-family="system-ui,sans-serif" font-size="13" font-weight="600">Tab</text>
<text x="244.0" y="376.0" text-anchor="middle" fill="white" font-family="system-ui,sans-serif" font-size="13" font-weight="600">GUI</text>
<rect x="277.0" y="340.0" width="58" height="58" rx="9" fill="#d97706" stroke="#8b949e" stroke-width="1"/>
<text x="306.0" y="359.0" text-anchor="middle" fill="white" font-family="system-ui,sans-serif" font-size="11" font-weight="600">Space</text>
<text x="306.0" y="376.0" text-anchor="middle" fill="white" font-family="system-ui,sans-serif" font-size="11" font-weight="600">Lower</text>
<rect x="354.5" y="309.0" width="58" height="58" rx="9" fill="#d97706" stroke="#8b949e" stroke-width="1"/>
<text x="383.5" y="328.0" text-anchor="middle" fill="white" font-family="system-ui,sans-serif" font-size="11" font-weight="600">Raise</text>
<text x="383.5" y="345.0" text-anchor="middle" fill="white" font-family="system-ui,sans-serif" font-size="11" font-weight="600">toggle</text>
<rect x="509.5" y="309.0" width="58" height="58" rx="9" fill="#25845b" stroke="#8b949e" stroke-width="1"/>
<text x="538.5" y="336.0" text-anchor="middle" fill="white" font-family="system-ui,sans-serif" font-size="13" font-weight="600">Mute</text>
<rect x="587.0" y="340.0" width="58" height="58" rx="9" fill="#d97706" stroke="#8b949e" stroke-width="1"/>
<text x="616.0" y="359.0" text-anchor="middle" fill="white" font-family="system-ui,sans-serif" font-size="11" font-weight="600">Space</text>
<text x="616.0" y="376.0" text-anchor="middle" fill="white" font-family="system-ui,sans-serif" font-size="11" font-weight="600">Raise</text>
<rect x="649.0" y="340.0" width="58" height="58" rx="9" fill="#202938" stroke="#8b949e" stroke-width="1"/>
<text x="678.0" y="367.0" text-anchor="middle" fill="white" font-family="system-ui,sans-serif" font-size="13" font-weight="600">Backspace</text>
<rect x="711.0" y="340.0" width="58" height="58" rx="9" fill="#7657c8" stroke="#8b949e" stroke-width="1"/>
<text x="740.0" y="359.0" text-anchor="middle" fill="white" font-family="system-ui,sans-serif" font-size="11" font-weight="600">Enter</text>
<text x="740.0" y="376.0" text-anchor="middle" fill="white" font-family="system-ui,sans-serif" font-size="11" font-weight="600">Shift</text>
<circle cx="105" cy="55" r="20" fill="#21262d" stroke="#8b949e"/><circle cx="815" cy="55" r="20" fill="#21262d" stroke="#8b949e"/>
<text x="460" y="436" text-anchor="middle" fill="#b1bac4" font-family="system-ui,sans-serif" font-size="14">Left encoder: Tab / Shift+Tab   •   Right encoder: Volume</text>
</svg>
